<?xml version="1.0" encoding="utf-8"?>
<!-- Generator: Adobe Illustrator 26.5.0, SVG Export Plug-In . SVG Version: 6.00 Build 0)  -->
<svg version="1.1" id="Capa_1" xmlns="http://www.w3.org/2000/svg" xmlns:xlink="http://www.w3.org/1999/xlink" x="0px" y="0px"
	 viewBox="0 0 512 512" style="enable-background:new 0 0 512 512;" xml:space="preserve">
<style type="text/css">
	.st0{fill:#DDEBFD;}
	.st1{fill:#BED9FD;}
	.st2{fill:#8AC9FE;}
	.st3{fill:#60B7FF;}

	@keyframes flickerAnimation {
  0%   { opacity:1; }
  50%  { opacity:0; }
  100% { opacity:1; }
}
@-o-keyframes flickerAnimation{
  0%   { opacity:1; }
  50%  { opacity:0; }
  100% { opacity:1; }
}
@-moz-keyframes flickerAnimation{
  0%   { opacity:1; }
  50%  { opacity:0; }
  100% { opacity:1; }
}
@-webkit-keyframes flickerAnimation{
  0%   { opacity:1; }
  50%  { opacity:0; }
  100% { opacity:1; }
}
.st4 {
   -webkit-animation: flickerAnimation 3s infinite;
   -moz-animation: flickerAnimation 3s infinite;
   -o-animation: flickerAnimation 3s infinite;
    animation: flickerAnimation 3s infinite;
}

.st5 {
   -webkit-animation: flickerAnimation 4s infinite;
   -moz-animation: flickerAnimation 4s infinite;
   -o-animation: flickerAnimation 4s infinite;
    animation: flickerAnimation 4s infinite;
}

.st6 {
   -webkit-animation: flickerAnimation 6s infinite;
   -moz-animation: flickerAnimation 6s infinite;
   -o-animation: flickerAnimation 6s infinite;
    animation: flickerAnimation 6s infinite;
}

.st7 {
   -webkit-animation: flickerAnimation 7s infinite;
   -moz-animation: flickerAnimation 7s infinite;
   -o-animation: flickerAnimation 7s infinite;
    animation: flickerAnimation 7s infinite;
}

.st8 {
   -webkit-animation: flickerAnimation 8s infinite;
   -moz-animation: flickerAnimation 8s infinite;
   -o-animation: flickerAnimation 8s infinite;
    animation: flickerAnimation 8s infinite;
}
</style>
<g>
	<g>
		<g>
			<g>
				<path class="st0" d="M211.6,231.6H64c-5.5,0-10-4.5-10-10V64c0-5.5,4.5-10,10-10h147.6c5.5,0,10,4.5,10,10v157.6
					C221.6,227.1,217.1,231.6,211.6,231.6L211.6,231.6z"/>
			</g>
			<path class="st1" d="M221.6,54h-30c5.5,0,10,4.5,10,10v157.6c0,5.5-4.5,10-10,10h30c5.5,0,10-4.5,10-10V64
				C231.6,58.5,227.1,54,221.6,54z"/>
			<path class="st2" d="M158.5,166.5h-34.3c-2.8,0-5-2.2-5-5v-37.3c0-2.8,2.2-5,5-5h34.3c2.8,0,5,2.2,5,5v37.3
				C163.5,164.2,161.2,166.5,158.5,166.5z"/>
			<path class="st3" d="M161.5,119.1h-18c2.8,0,5,2.2,5,5v37.3c0,2.8-2.2,5-5,5h18c2.8,0,5-2.2,5-5v-37.3
				C166.5,121.4,164.2,119.1,161.5,119.1z"/>
			<g>
				<path class="st0" d="M211.6,458H64c-5.5,0-10-4.5-10-10V290.4c0-5.5,4.5-10,10-10h147.6c5.5,0,10,4.5,10,10V448
					C221.6,453.5,217.1,458,211.6,458L211.6,458z"/>
			</g>
			<path class="st1" d="M221.6,280.4h-30c5.5,0,10,4.5,10,10V448c0,5.5-4.5,10-10,10h30c5.5,0,10-4.5,10-10V290.4
				C231.6,284.9,227.1,280.4,221.6,280.4z"/>
			<path class="st2" d="M158.5,392.9h-34.3c-2.8,0-5-2.2-5-5v-37.3c0-2.8,2.2-5,5-5h34.3c2.8,0,5,2.2,5,5v37.3
				C163.5,390.6,161.2,392.9,158.5,392.9z"/>
			<path class="st3" d="M161.5,345.5h-18c2.8,0,5,2.2,5,5v37.3c0,2.8-2.2,5-5,5h18c2.8,0,5-2.2,5-5v-37.3
				C166.5,347.8,164.2,345.5,161.5,345.5z"/>
			<g>
				<path class="st0" d="M438,231.6H290.4c-5.5,0-10-4.5-10-10V64c0-5.5,4.5-10,10-10H438c5.5,0,10,4.5,10,10v157.6
					C448,227.1,443.5,231.6,438,231.6L438,231.6z"/>
			</g>
			<path class="st1" d="M448,54h-30c5.5,0,10,4.5,10,10v157.6c0,5.5-4.5,10-10,10h30c5.5,0,10-4.5,10-10V64
				C458,58.5,453.5,54,448,54z"/>
			<path class="st2" d="M384.9,166.5h-34.3c-2.8,0-5-2.2-5-5v-37.3c0-2.8,2.2-5,5-5h34.3c2.8,0,5,2.2,5,5v37.3
				C389.9,164.2,387.6,166.5,384.9,166.5z"/>
			<path class="st3" d="M387.9,119.1h-18c2.8,0,5,2.2,5,5v37.3c0,2.8-2.2,5-5,5h18c2.8,0,5-2.2,5-5v-37.3
				C392.9,121.4,390.6,119.1,387.9,119.1z"/>
			<path class="st2" d="M384.9,392.9h-34.3c-2.8,0-5-2.2-5-5v-37.3c0-2.8,2.2-5,5-5h34.3c2.8,0,5,2.2,5,5v37.3
				C389.9,390.6,387.6,392.9,384.9,392.9z"/>
			<path class="st3" d="M387.9,345.5h-18c2.8,0,5,2.2,5,5v37.3c0,2.8-2.2,5-5,5h18c2.8,0,5-2.2,5-5v-37.3
				C392.9,347.8,390.6,345.5,387.9,345.5z"/>
			<path class="st2" d="M450,327.7h-34.3c-2.8,0-5-2.2-5-5v-37.3c0-2.8,2.2-5,5-5H450c2.8,0,5,2.2,5,5v37.3
				C455,325.5,452.8,327.7,450,327.7z"/>
			<path class="st3" d="M453,280.4h-18c2.8,0,5,2.2,5,5v37.3c0,2.8-2.2,5-5,5h18c2.8,0,5-2.2,5-5v-37.3
				C458,282.6,455.8,280.4,453,280.4z"/>
			<path class="st2" d="M319.7,327.7h-34.3c-2.8,0-5-2.2-5-5v-37.3c0-2.8,2.2-5,5-5h34.3c2.8,0,5,2.2,5,5v37.3
				C324.7,325.5,322.5,327.7,319.7,327.7z"/>
			<path class="st3" d="M322.7,280.4h-18c2.8,0,5,2.2,5,5v37.3c0,2.8-2.2,5-5,5h18c2.8,0,5-2.2,5-5v-37.3
				C327.7,282.6,325.5,280.4,322.7,280.4z"/>
			<path class="st2" d="M450,458h-34.3c-2.8,0-5-2.2-5-5v-37.3c0-2.8,2.2-5,5-5H450c2.8,0,5,2.2,5,5V453
				C455,455.8,452.8,458,450,458z"/>
			<path class="st3" d="M453,410.7h-18c2.8,0,5,2.2,5,5V453c0,2.8-2.2,5-5,5h18c2.8,0,5-2.2,5-5v-37.3
				C458,412.9,455.8,410.7,453,410.7z"/>
			<path class="st2" d="M319.7,458h-34.3c-2.8,0-5-2.2-5-5v-37.3c0-2.8,2.2-5,5-5h34.3c2.8,0,5,2.2,5,5V453
				C324.7,455.8,322.5,458,319.7,458z"/>
			<path class="st3" d="M322.7,410.7h-18c2.8,0,5,2.2,5,5V453c0,2.8-2.2,5-5,5h18c2.8,0,5-2.2,5-5v-37.3
				C327.7,412.9,325.5,410.7,322.7,410.7z"/>
		</g>
	</g>
	<g >
		<g class="st4">
			<path  d="M387.9,400.4h-37.3c-6.9,0-12.5-5.6-12.5-12.5v-37.3c0-6.9,5.6-12.5,12.5-12.5h37.3c6.9,0,12.5,5.6,12.5,12.5v37.3
				C400.4,394.8,394.8,400.4,387.9,400.4z M353,385.4h32.3V353H353V385.4z"/>
		</g>
		<g>
			<path d="M7.5,106.6c-4.1,0-7.5-3.4-7.5-7.5V22.5C0,10.1,10.1,0,22.5,0h76.6c4.1,0,7.5,3.4,7.5,7.5s-3.4,7.5-7.5,7.5H22.5
				c-4.1,0-7.5,3.4-7.5,7.5v76.6C15,103.2,11.6,106.6,7.5,106.6z"/>
		</g>
		<g >
			<path d="M504.5,106.6c-4.1,0-7.5-3.4-7.5-7.5V22.5c0-4.1-3.4-7.5-7.5-7.5h-76.6c-4.1,0-7.5-3.4-7.5-7.5s3.4-7.5,7.5-7.5h76.6
				C501.9,0,512,10.1,512,22.5v76.6C512,103.2,508.6,106.6,504.5,106.6z"/>
		</g>
		<g >
			<path d="M99.1,512H22.5C10.1,512,0,501.9,0,489.5v-76.6c0-4.1,3.4-7.5,7.5-7.5s7.5,3.4,7.5,7.5v76.6c0,4.1,3.4,7.5,7.5,7.5h76.6
				c4.1,0,7.5,3.4,7.5,7.5S103.2,512,99.1,512z"/>
		</g>
		<g >
			<path d="M489.5,512h-76.6c-4.1,0-7.5-3.4-7.5-7.5s3.4-7.5,7.5-7.5h76.6c4.1,0,7.5-3.4,7.5-7.5v-76.6c0-4.1,3.4-7.5,7.5-7.5
				s7.5,3.4,7.5,7.5v76.6C512,501.9,501.9,512,489.5,512z"/>
		</g>
		<g >
			<g class="st5">
				<path d="M387.9,174h-37.3c-6.9,0-12.5-5.6-12.5-12.5v-37.3c0-6.9,5.6-12.5,12.5-12.5h37.3c6.9,0,12.5,5.6,12.5,12.5v37.3
					C400.4,168.4,394.8,174,387.9,174z M353,159h32.3v-32.3H353V159z"/>
			</g>
		</g>
		<g class="st5">
			<path d="M453,465.5h-37.3c-6.9,0-12.5-5.6-12.5-12.5v-37.3c0-6.9,5.6-12.5,12.5-12.5H453c6.9,0,12.5,5.6,12.5,12.5V453
				C465.5,459.9,459.9,465.5,453,465.5z M418.2,450.5h32.3v-32.3h-32.3V450.5z"/>
		</g>
		<g class="st6">
			<path d="M322.7,465.5h-37.3c-6.9,0-12.5-5.6-12.5-12.5v-37.3c0-6.9,5.6-12.5,12.5-12.5h37.3c6.9,0,12.5,5.6,12.5,12.5V453
				C335.2,459.9,329.6,465.5,322.7,465.5L322.7,465.5z M287.9,450.5h32.3v-32.3h-32.3V450.5z"/>
		</g>
		<g class="st7">
			<path d="M322.7,335.2h-37.3c-6.9,0-12.5-5.6-12.5-12.5v-37.3c0-6.9,5.6-12.5,12.5-12.5h37.3c6.9,0,12.5,5.6,12.5,12.5v37.3
				C335.2,329.6,329.6,335.2,322.7,335.2L322.7,335.2z M287.9,320.2h32.3v-32.3h-32.3V320.2z"/>
		</g>
		<g class="st8">
			<path d="M453,335.2h-37.3c-6.9,0-12.5-5.6-12.5-12.5v-37.3c0-6.9,5.6-12.5,12.5-12.5H453c6.9,0,12.5,5.6,12.5,12.5v37.3
				C465.5,329.6,459.9,335.2,453,335.2z M418.2,320.2h32.3v-32.3h-32.3V320.2z"/>
		</g>
		<g class="st5">
			<path d="M161.5,400.4h-37.3c-6.9,0-12.5-5.6-12.5-12.5v-37.3c0-6.9,5.6-12.5,12.5-12.5h37.3c6.9,0,12.5,5.6,12.5,12.5v37.3
				C174,394.8,168.4,400.4,161.5,400.4z M126.6,385.4H159V353h-32.3V385.4z"/>
		</g>
		<g class="st7">
			<path d="M161.5,174h-37.3c-6.9,0-12.5-5.6-12.5-12.5v-37.3c0-6.9,5.6-12.5,12.5-12.5h37.3c6.9,0,12.5,5.6,12.5,12.5v37.3
				C174,168.4,168.4,174,161.5,174z M126.6,159H159v-32.3h-32.3V159z"/>
		</g>
		<g >
			<g >
				<path d="M221.6,465.5H64c-9.6,0-17.5-7.9-17.5-17.5V290.4c0-9.6,7.9-17.5,17.5-17.5h157.6c9.6,0,17.5,7.9,17.5,17.5v62.2
					c0,4.1-3.4,7.5-7.5,7.5s-7.5-3.4-7.5-7.5v-62.2c0-1.4-1.1-2.5-2.5-2.5H64c-1.4,0-2.5,1.1-2.5,2.5V448c0,1.4,1.1,2.5,2.5,2.5
					h157.6c1.4,0,2.5-1.1,2.5-2.5v-62.3c0-4.1,3.4-7.5,7.5-7.5s7.5,3.4,7.5,7.5V448C239.1,457.7,231.3,465.5,221.6,465.5
					L221.6,465.5z"/>
			</g>
		</g>
		<g >
			<g>
				<path d="M448,239.1h-38.8c-4.1,0-7.5-3.4-7.5-7.5s3.4-7.5,7.5-7.5H448c1.4,0,2.5-1.1,2.5-2.5V64c0-1.4-1.1-2.5-2.5-2.5H290.4
					c-1.4,0-2.5,1.1-2.5,2.5v157.6c0,1.4,1.1,2.5,2.5,2.5h86.1c4.1,0,7.5,3.4,7.5,7.5s-3.4,7.5-7.5,7.5h-86.1
					c-9.6,0-17.5-7.9-17.5-17.5V64c0-9.6,7.9-17.5,17.5-17.5H448c9.6,0,17.5,7.9,17.5,17.5v157.6C465.5,231.3,457.7,239.1,448,239.1
					L448,239.1z"/>
			</g>
		</g>
		<g>
			<g >
				<path d="M221.6,239.1H64c-9.6,0-17.5-7.9-17.5-17.5v-88.3c0-4.1,3.4-7.5,7.5-7.5s7.5,3.4,7.5,7.5v88.3c0,1.4,1.1,2.5,2.5,2.5
					h157.6c1.4,0,2.5-1.1,2.5-2.5V64c0-1.4-1.1-2.5-2.5-2.5H64c-1.4,0-2.5,1.1-2.5,2.5v36.6c0,4.1-3.4,7.5-7.5,7.5s-7.5-3.4-7.5-7.5
					V64c0-9.6,7.9-17.5,17.5-17.5h157.6c9.6,0,17.5,7.9,17.5,17.5v157.6C239.1,231.3,231.3,239.1,221.6,239.1L221.6,239.1z"/>
			</g>
		</g>
	</g>
</g>
</svg>
